<svg width="6" height="8" viewBox="0 0 6 8" fill="none" xmlns="http://www.w3.org/2000/svg">
<path d="M0.0535742 6.63C0.280241 6.45 0.383574 6.36667 0.363574 6.38C1.01691 5.84 1.53024 5.39667 1.90357 5.05C2.28357 4.70333 2.60357 4.34 2.86357 3.96C3.12357 3.58 3.25357 3.21 3.25357 2.85C3.25357 2.57667 3.19024 2.36333 3.06357 2.21C2.93691 2.05667 2.74691 1.98 2.49357 1.98C2.24024 1.98 2.04024 2.07667 1.89357 2.27C1.75357 2.45667 1.68357 2.72333 1.68357 3.07H0.0335742C0.0469076 2.50333 0.166908 2.03 0.393574 1.65C0.626908 1.27 0.930241 0.99 1.30357 0.81C1.68357 0.63 2.10357 0.539999 2.56357 0.539999C3.35691 0.539999 3.95357 0.743333 4.35357 1.15C4.76024 1.55667 4.96357 2.08667 4.96357 2.74C4.96357 3.45333 4.72024 4.11667 4.23357 4.73C3.74691 5.33667 3.12691 5.93 2.37357 6.51H5.07357V7.9H0.0535742V6.63Z" fill="white"/>
</svg>
